<svg width="503" height="123" viewBox="0 0 503 123" fill="none" xmlns="http://www.w3.org/2000/svg">
<path d="M36.656 33.126V42H4.06V1.4H35.902V10.274H15.428V17.118H33.466V25.702H15.428V33.126H36.656ZM79.8848 42L79.7688 20.482L69.3288 37.998H64.2248L53.8428 21.062V42H43.2288V1.4H52.6828L66.9508 24.832L80.8708 1.4H90.3248L90.4408 42H79.8848ZM117.327 1.4C121 1.4 124.19 2.01866 126.897 3.256C129.603 4.45466 131.691 6.19467 133.161 8.476C134.63 10.7187 135.365 13.3673 135.365 16.422C135.365 19.4767 134.63 22.1253 133.161 24.368C131.691 26.6107 129.603 28.3507 126.897 29.588C124.19 30.7867 121 31.386 117.327 31.386H110.251V42H98.7666V1.4H117.327ZM116.631 22.338C118.989 22.338 120.768 21.8353 121.967 20.83C123.165 19.786 123.765 18.3167 123.765 16.422C123.765 14.5273 123.165 13.058 121.967 12.014C120.768 10.97 118.989 10.448 116.631 10.448H110.251V22.338H116.631ZM162.204 42.812C157.912 42.812 154.046 41.9033 150.604 40.086C147.202 38.2687 144.514 35.7553 142.542 32.546C140.609 29.3367 139.642 25.7213 139.642 21.7C139.642 17.6787 140.609 14.0633 142.542 10.854C144.514 7.64467 147.202 5.13133 150.604 3.314C154.046 1.49666 157.912 0.587997 162.204 0.587997C166.496 0.587997 170.344 1.49666 173.746 3.314C177.188 5.13133 179.875 7.64467 181.808 10.854C183.78 14.0633 184.766 17.6787 184.766 21.7C184.766 25.7213 183.78 29.3367 181.808 32.546C179.875 35.7553 177.188 38.2687 173.746 40.086C170.344 41.9033 166.496 42.812 162.204 42.812ZM162.204 33.3C164.254 33.3 166.11 32.8167 167.772 31.85C169.435 30.8833 170.75 29.53 171.716 27.79C172.683 26.0113 173.166 23.9813 173.166 21.7C173.166 19.4187 172.683 17.408 171.716 15.668C170.75 13.8893 169.435 12.5167 167.772 11.55C166.11 10.5833 164.254 10.1 162.204 10.1C160.155 10.1 158.299 10.5833 156.636 11.55C154.974 12.5167 153.659 13.8893 152.692 15.668C151.726 17.408 151.242 19.4187 151.242 21.7C151.242 23.9813 151.726 26.0113 152.692 27.79C153.659 29.53 154.974 30.8833 156.636 31.85C158.299 32.8167 160.155 33.3 162.204 33.3ZM253.249 1.4L240.083 42H227.787L220.015 17.292L211.895 42H199.599L186.433 1.4H198.265L206.443 27.326L215.027 1.4H225.583L233.761 27.558L242.287 1.4H253.249ZM290.16 33.126V42H257.564V1.4H289.406V10.274H268.932V17.118H286.97V25.702H268.932V33.126H290.16ZM314.481 31.212H308.217V42H296.733V1.4H315.293C318.966 1.4 322.156 2.01866 324.863 3.256C327.569 4.45466 329.657 6.19467 331.127 8.476C332.596 10.7187 333.331 13.3673 333.331 16.422C333.331 19.3607 332.635 21.932 331.243 24.136C329.889 26.3013 327.937 28.0027 325.385 29.24L334.143 42H321.847L314.481 31.212ZM321.731 16.422C321.731 14.5273 321.131 13.058 319.933 12.014C318.734 10.97 316.955 10.448 314.597 10.448H308.217V22.338H314.597C316.955 22.338 318.734 21.8353 319.933 20.83C321.131 19.786 321.731 18.3167 321.731 16.422ZM25.81 107.442V122H14.326V107.268L-1.16 81.4H10.962L20.59 97.524L30.218 81.4H41.354L25.81 107.442ZM63.193 122.812C58.901 122.812 55.0343 121.903 51.593 120.086C48.1903 118.269 45.503 115.755 43.531 112.546C41.5977 109.337 40.631 105.721 40.631 101.7C40.631 97.6787 41.5977 94.0633 43.531 90.854C45.503 87.6447 48.1903 85.1313 51.593 83.314C55.0343 81.4967 58.901 80.588 63.193 80.588C67.485 80.588 71.3323 81.4967 74.735 83.314C78.1763 85.1313 80.8637 87.6447 82.797 90.854C84.769 94.0633 85.755 97.6787 85.755 101.7C85.755 105.721 84.769 109.337 82.797 112.546C80.8637 115.755 78.1763 118.269 74.735 120.086C71.3323 121.903 67.485 122.812 63.193 122.812ZM63.193 113.3C65.2423 113.3 67.0983 112.817 68.761 111.85C70.4237 110.883 71.7383 109.53 72.705 107.79C73.6717 106.011 74.155 103.981 74.155 101.7C74.155 99.4187 73.6717 97.408 72.705 95.668C71.7383 93.8893 70.4237 92.5167 68.761 91.55C67.0983 90.5833 65.2423 90.1 63.193 90.1C61.1437 90.1 59.2877 90.5833 57.625 91.55C55.9623 92.5167 54.6477 93.8893 53.681 95.668C52.7143 97.408 52.231 99.4187 52.231 101.7C52.231 103.981 52.7143 106.011 53.681 107.79C54.6477 109.53 55.9623 110.883 57.625 111.85C59.2877 112.817 61.1437 113.3 63.193 113.3ZM110.704 122.812C104.672 122.812 99.9738 121.169 96.6098 117.882C93.2844 114.595 91.6218 109.936 91.6218 103.904V81.4H103.106V103.556C103.106 110.052 105.677 113.3 110.82 113.3C115.924 113.3 118.476 110.052 118.476 103.556V81.4H129.786V103.904C129.786 109.936 128.104 114.595 124.74 117.882C121.414 121.169 116.736 122.812 110.704 122.812ZM155.513 111.212H149.249V122H137.765V81.4H156.325C159.999 81.4 163.189 82.0187 165.895 83.256C168.602 84.4547 170.69 86.1947 172.159 88.476C173.629 90.7187 174.363 93.3673 174.363 96.422C174.363 99.3607 173.667 101.932 172.275 104.136C170.922 106.301 168.969 108.003 166.417 109.24L175.175 122H162.879L155.513 111.212ZM162.763 96.422C162.763 94.5273 162.164 93.058 160.965 92.014C159.767 90.97 157.988 90.448 155.629 90.448H149.249V102.338H155.629C157.988 102.338 159.767 101.835 160.965 100.83C162.164 99.786 162.763 98.3167 162.763 96.422ZM229.182 100.83C231.502 101.642 233.319 102.918 234.634 104.658C235.949 106.359 236.606 108.428 236.606 110.864C236.606 114.421 235.175 117.167 232.314 119.1C229.453 121.033 225.315 122 219.902 122H197.978V81.4H218.742C223.923 81.4 227.867 82.3667 230.574 84.3C233.281 86.1947 234.634 88.766 234.634 92.014C234.634 93.9473 234.151 95.6873 233.184 97.234C232.256 98.742 230.922 99.9407 229.182 100.83ZM209.346 89.694V97.524H217.234C221.101 97.524 223.034 96.2093 223.034 93.58C223.034 90.9893 221.101 89.694 217.234 89.694H209.346ZM218.974 113.706C222.995 113.706 225.006 112.333 225.006 109.588C225.006 106.843 222.995 105.47 218.974 105.47H209.346V113.706H218.974ZM261.488 122.812C255.456 122.812 250.758 121.169 247.394 117.882C244.069 114.595 242.406 109.936 242.406 103.904V81.4H253.89V103.556C253.89 110.052 256.461 113.3 261.604 113.3C266.708 113.3 269.26 110.052 269.26 103.556V81.4H280.57V103.904C280.57 109.936 278.888 114.595 275.524 117.882C272.199 121.169 267.52 122.812 261.488 122.812ZM302.818 122.812C299.531 122.812 296.341 122.406 293.248 121.594C290.155 120.782 287.641 119.699 285.708 118.346L289.478 109.878C291.295 111.077 293.403 112.043 295.8 112.778C298.197 113.513 300.556 113.88 302.876 113.88C307.284 113.88 309.488 112.778 309.488 110.574C309.488 109.414 308.85 108.563 307.574 108.022C306.337 107.442 304.326 106.843 301.542 106.224C298.487 105.567 295.935 104.871 293.886 104.136C291.837 103.363 290.077 102.145 288.608 100.482C287.139 98.8193 286.404 96.5767 286.404 93.754C286.404 91.2793 287.081 89.056 288.434 87.084C289.787 85.0733 291.798 83.488 294.466 82.328C297.173 81.168 300.479 80.588 304.384 80.588C307.052 80.588 309.681 80.8973 312.272 81.516C314.863 82.096 317.144 82.966 319.116 84.126L315.578 92.652C311.711 90.564 307.961 89.52 304.326 89.52C302.045 89.52 300.382 89.868 299.338 90.564C298.294 91.2213 297.772 92.0913 297.772 93.174C297.772 94.2567 298.391 95.0687 299.628 95.61C300.865 96.1513 302.857 96.712 305.602 97.292C308.695 97.9493 311.247 98.6647 313.258 99.438C315.307 100.173 317.067 101.371 318.536 103.034C320.044 104.658 320.798 106.881 320.798 109.704C320.798 112.14 320.121 114.344 318.768 116.316C317.415 118.288 315.385 119.873 312.678 121.072C309.971 122.232 306.685 122.812 302.818 122.812ZM326.303 81.4H337.787V122H326.303V81.4ZM384.785 81.4V122H375.331L357.409 100.366V122H346.157V81.4H355.611L373.533 103.034V81.4H384.785ZM425.681 113.126V122H393.085V81.4H424.927V90.274H404.453V97.118H422.491V105.702H404.453V113.126H425.681ZM446.522 122.812C443.235 122.812 440.045 122.406 436.952 121.594C433.859 120.782 431.345 119.699 429.412 118.346L433.182 109.878C434.999 111.077 437.107 112.043 439.504 112.778C441.901 113.513 444.26 113.88 446.58 113.88C450.988 113.88 453.192 112.778 453.192 110.574C453.192 109.414 452.554 108.563 451.278 108.022C450.041 107.442 448.03 106.843 445.246 106.224C442.191 105.567 439.639 104.871 437.59 104.136C435.541 103.363 433.781 102.145 432.312 100.482C430.843 98.8193 430.108 96.5767 430.108 93.754C430.108 91.2793 430.785 89.056 432.138 87.084C433.491 85.0733 435.502 83.488 438.17 82.328C440.877 81.168 444.183 80.588 448.088 80.588C450.756 80.588 453.385 80.8973 455.976 81.516C458.567 82.096 460.848 82.966 462.82 84.126L459.282 92.652C455.415 90.564 451.665 89.52 448.03 89.52C445.749 89.52 444.086 89.868 443.042 90.564C441.998 91.2213 441.476 92.0913 441.476 93.174C441.476 94.2567 442.095 95.0687 443.332 95.61C444.569 96.1513 446.561 96.712 449.306 97.292C452.399 97.9493 454.951 98.6647 456.962 99.438C459.011 100.173 460.771 101.371 462.24 103.034C463.748 104.658 464.502 106.881 464.502 109.704C464.502 112.14 463.825 114.344 462.472 116.316C461.119 118.288 459.089 119.873 456.382 121.072C453.675 122.232 450.389 122.812 446.522 122.812ZM484.275 122.812C480.988 122.812 477.798 122.406 474.705 121.594C471.612 120.782 469.098 119.699 467.165 118.346L470.935 109.878C472.752 111.077 474.86 112.043 477.257 112.778C479.654 113.513 482.013 113.88 484.333 113.88C488.741 113.88 490.945 112.778 490.945 110.574C490.945 109.414 490.307 108.563 489.031 108.022C487.794 107.442 485.783 106.843 482.999 106.224C479.944 105.567 477.392 104.871 475.343 104.136C473.294 103.363 471.534 102.145 470.065 100.482C468.596 98.8193 467.861 96.5767 467.861 93.754C467.861 91.2793 468.538 89.056 469.891 87.084C471.244 85.0733 473.255 83.488 475.923 82.328C478.63 81.168 481.936 80.588 485.841 80.588C488.509 80.588 491.138 80.8973 493.729 81.516C496.32 82.096 498.601 82.966 500.573 84.126L497.035 92.652C493.168 90.564 489.418 89.52 485.783 89.52C483.502 89.52 481.839 89.868 480.795 90.564C479.751 91.2213 479.229 92.0913 479.229 93.174C479.229 94.2567 479.848 95.0687 481.085 95.61C482.322 96.1513 484.314 96.712 487.059 97.292C490.152 97.9493 492.704 98.6647 494.715 99.438C496.764 100.173 498.524 101.371 499.993 103.034C501.501 104.658 502.255 106.881 502.255 109.704C502.255 112.14 501.578 114.344 500.225 116.316C498.872 118.288 496.842 119.873 494.135 121.072C491.428 122.232 488.142 122.812 484.275 122.812Z" fill="#252B42"/>
</svg>
