<svg width="251" height="52" viewBox="0 0 251 52" fill="none" xmlns="http://www.w3.org/2000/svg">
<path d="M7.464 5.128C6.84 5.128 6.344 5.28 5.976 5.584C5.624 5.872 5.448 6.264 5.448 6.76C5.448 7.24 5.664 7.624 6.096 7.912C6.544 8.2 7.56 8.544 9.144 8.944C10.744 9.328 11.984 9.912 12.864 10.696C13.744 11.48 14.184 12.624 14.184 14.128C14.184 15.632 13.616 16.856 12.48 17.8C11.36 18.728 9.88 19.192 8.04 19.192C5.384 19.192 2.992 18.208 0.864 16.24L3.096 13.504C4.904 15.088 6.576 15.88 8.112 15.88C8.8 15.88 9.336 15.736 9.72 15.448C10.12 15.144 10.32 14.744 10.32 14.248C10.32 13.736 10.112 13.336 9.696 13.048C9.28 12.744 8.456 12.44 7.224 12.136C5.272 11.672 3.84 11.072 2.928 10.336C2.032 9.584 1.584 8.416 1.584 6.832C1.584 5.232 2.152 4 3.288 3.136C4.44 2.272 5.872 1.84 7.584 1.84C8.704 1.84 9.824 2.032 10.944 2.416C12.064 2.8 13.04 3.344 13.872 4.048L11.976 6.784C10.52 5.68 9.016 5.128 7.464 5.128ZM25.2726 13.048V6.088H28.8966V19H25.2726V17.296C24.3766 18.56 23.2166 19.192 21.7926 19.192C20.3846 19.192 19.2006 18.752 18.2406 17.872C17.2806 16.976 16.8006 15.656 16.8006 13.912V6.088H20.4246V13.12C20.4246 15.104 21.1526 16.096 22.6086 16.096C23.3286 16.096 23.9526 15.84 24.4806 15.328C25.0086 14.8 25.2726 14.04 25.2726 13.048ZM39.8362 5.872C41.4042 5.872 42.7722 6.488 43.9402 7.72C45.1082 8.936 45.6922 10.504 45.6922 12.424C45.6922 14.344 45.0922 15.952 43.8922 17.248C42.6922 18.544 41.3242 19.192 39.7882 19.192C38.2682 19.192 37.0042 18.56 35.9962 17.296V19H32.3962V1.192H35.9962V7.528C36.9882 6.424 38.2682 5.872 39.8362 5.872ZM35.9482 12.568C35.9482 13.608 36.2362 14.464 36.8122 15.136C37.4042 15.792 38.1162 16.12 38.9482 16.12C39.7802 16.12 40.5082 15.792 41.1322 15.136C41.7562 14.464 42.0682 13.608 42.0682 12.568C42.0682 11.528 41.7642 10.656 41.1562 9.952C40.5482 9.248 39.8202 8.896 38.9722 8.896C38.1242 8.896 37.4042 9.248 36.8122 9.952C36.2362 10.64 35.9482 11.512 35.9482 12.568ZM58.0834 14.992C58.0834 16.256 57.6114 17.272 56.6674 18.04C55.7394 18.808 54.5554 19.192 53.1154 19.192C52.1554 19.192 51.1554 19.024 50.1154 18.688C49.0754 18.336 48.1394 17.824 47.3074 17.152L48.8914 14.896C50.2354 15.936 51.6674 16.456 53.1874 16.456C53.6514 16.456 54.0194 16.368 54.2914 16.192C54.5634 16 54.6994 15.752 54.6994 15.448C54.6994 15.144 54.5074 14.864 54.1234 14.608C53.7554 14.352 53.2114 14.112 52.4914 13.888C51.7874 13.664 51.2434 13.472 50.8594 13.312C50.4914 13.152 50.0674 12.92 49.5874 12.616C48.6114 12.008 48.1234 11.112 48.1234 9.928C48.1234 8.728 48.6034 7.752 49.5634 7C50.5234 6.248 51.7634 5.872 53.2834 5.872C54.8034 5.872 56.3234 6.384 57.8434 7.408L56.4994 9.808C55.3794 9.04 54.2594 8.656 53.1394 8.656C52.0354 8.656 51.4834 8.96 51.4834 9.568C51.4834 9.904 51.6594 10.168 52.0114 10.36C52.3634 10.552 52.9474 10.776 53.7634 11.032C54.5794 11.288 55.1554 11.488 55.4914 11.632C55.8434 11.76 56.2594 11.968 56.7394 12.256C57.6354 12.8 58.0834 13.712 58.0834 14.992ZM67.1241 16C68.3241 16 69.4041 15.4 70.3641 14.2L72.5001 16.6C70.8361 18.328 69.0361 19.192 67.1001 19.192C65.1641 19.192 63.5241 18.584 62.1801 17.368C60.8521 16.136 60.1881 14.536 60.1881 12.568C60.1881 10.584 60.8601 8.976 62.2041 7.744C63.5641 6.496 65.1721 5.872 67.0281 5.872C67.9561 5.872 68.8921 6.064 69.8361 6.448C70.7961 6.832 71.6361 7.4 72.3561 8.152L70.4841 10.6C70.0681 10.104 69.5561 9.72 68.9481 9.448C68.3561 9.176 67.7641 9.04 67.1721 9.04C66.2281 9.04 65.4121 9.352 64.7241 9.976C64.0521 10.584 63.7161 11.44 63.7161 12.544C63.7161 13.632 64.0521 14.48 64.7241 15.088C65.4121 15.696 66.2121 16 67.1241 16ZM81.7929 9.256C80.7209 9.256 79.9209 9.64 79.3929 10.408C78.8649 11.16 78.6009 12.16 78.6009 13.408V19H75.0009V6.088H78.6009V7.792C79.0649 7.264 79.6409 6.816 80.3289 6.448C81.0329 6.08 81.7449 5.888 82.4649 5.872L82.4889 9.256H81.7929ZM88.5681 19H84.9681V6.088H88.5681V19ZM85.2561 4.456C84.8561 4.04 84.6561 3.536 84.6561 2.944C84.6561 2.352 84.8561 1.856 85.2561 1.456C85.6721 1.04 86.1761 0.831999 86.7681 0.831999C87.3601 0.831999 87.8561 1.04 88.2561 1.456C88.6721 1.856 88.8801 2.352 88.8801 2.944C88.8801 3.536 88.6721 4.04 88.2561 4.456C87.8561 4.856 87.3601 5.056 86.7681 5.056C86.1761 5.056 85.6721 4.856 85.2561 4.456ZM99.5159 5.872C101.084 5.872 102.452 6.488 103.62 7.72C104.788 8.936 105.372 10.504 105.372 12.424C105.372 14.344 104.772 15.952 103.572 17.248C102.372 18.544 101.004 19.192 99.4679 19.192C97.9479 19.192 96.6839 18.56 95.6759 17.296V19H92.0759V1.192H95.6759V7.528C96.6679 6.424 97.9479 5.872 99.5159 5.872ZM95.6279 12.568C95.6279 13.608 95.9159 14.464 96.4919 15.136C97.0839 15.792 97.7959 16.12 98.6279 16.12C99.4599 16.12 100.188 15.792 100.812 15.136C101.436 14.464 101.748 13.608 101.748 12.568C101.748 11.528 101.444 10.656 100.836 9.952C100.228 9.248 99.4999 8.896 98.6519 8.896C97.8039 8.896 97.0839 9.248 96.4919 9.952C95.9159 10.64 95.6279 11.512 95.6279 12.568ZM119.344 17.128C117.888 18.504 116.176 19.192 114.208 19.192C112.256 19.192 110.64 18.592 109.36 17.392C108.08 16.176 107.44 14.552 107.44 12.52C107.44 10.488 108.088 8.872 109.384 7.672C110.696 6.472 112.24 5.872 114.016 5.872C115.792 5.872 117.296 6.408 118.528 7.48C119.776 8.552 120.4 10.024 120.4 11.896V13.816H110.992C111.104 14.52 111.472 15.096 112.096 15.544C112.72 15.992 113.424 16.216 114.208 16.216C115.472 16.216 116.512 15.792 117.328 14.944L119.344 17.128ZM116.752 11.248C116.672 10.48 116.384 9.888 115.888 9.472C115.392 9.056 114.784 8.848 114.064 8.848C113.36 8.848 112.712 9.064 112.12 9.496C111.528 9.928 111.184 10.512 111.088 11.248H116.752ZM141.404 2.224V5.512H133.628V9.136H141.02V12.424H133.628V19H129.884V2.224H141.404ZM146.942 12.544C146.942 13.6 147.238 14.464 147.83 15.136C148.438 15.792 149.206 16.12 150.134 16.12C151.078 16.12 151.846 15.792 152.438 15.136C153.046 14.464 153.35 13.6 153.35 12.544C153.35 11.488 153.046 10.624 152.438 9.952C151.846 9.28 151.078 8.944 150.134 8.944C149.206 8.944 148.438 9.28 147.83 9.952C147.238 10.624 146.942 11.488 146.942 12.544ZM156.974 12.544C156.974 14.416 156.326 15.992 155.03 17.272C153.734 18.552 152.102 19.192 150.134 19.192C148.182 19.192 146.558 18.552 145.262 17.272C143.966 15.992 143.318 14.416 143.318 12.544C143.318 10.672 143.966 9.096 145.262 7.816C146.558 6.52 148.182 5.872 150.134 5.872C152.102 5.872 153.734 6.52 155.03 7.816C156.326 9.096 156.974 10.672 156.974 12.544ZM166.54 9.256C165.468 9.256 164.668 9.64 164.14 10.408C163.612 11.16 163.348 12.16 163.348 13.408V19H159.748V6.088H163.348V7.792C163.812 7.264 164.388 6.816 165.076 6.448C165.78 6.08 166.492 5.888 167.212 5.872L167.236 9.256H166.54ZM176.503 19V2.224H180.247V15.664H187.399V19H176.503ZM200.852 19H197.468V17.44C196.54 18.608 195.388 19.192 194.012 19.192C192.652 19.192 191.508 18.8 190.58 18.016C189.652 17.216 189.188 16.16 189.188 14.848C189.188 13.52 189.668 12.528 190.628 11.872C191.588 11.216 192.9 10.888 194.564 10.888H197.252V10.816C197.252 9.44 196.524 8.752 195.068 8.752C194.444 8.752 193.78 8.88 193.076 9.136C192.388 9.376 191.804 9.68 191.324 10.048L189.716 7.72C191.412 6.488 193.348 5.872 195.524 5.872C197.092 5.872 198.372 6.264 199.364 7.048C200.356 7.832 200.852 9.072 200.852 10.768V19ZM197.228 14.08V13.456H194.972C193.532 13.456 192.812 13.904 192.812 14.8C192.812 15.264 192.98 15.624 193.316 15.88C193.668 16.12 194.164 16.24 194.804 16.24C195.444 16.24 196.004 16.048 196.484 15.664C196.98 15.264 197.228 14.736 197.228 14.08ZM208.389 8.68V14.464C208.389 14.96 208.517 15.352 208.773 15.64C209.029 15.912 209.333 16.048 209.685 16.048C210.357 16.048 210.925 15.744 211.389 15.136L212.733 17.656C211.613 18.68 210.429 19.192 209.181 19.192C207.949 19.192 206.901 18.784 206.037 17.968C205.189 17.152 204.765 16.04 204.765 14.632V8.68H203.253V6.088H204.765V2.224H208.389V6.088H211.509V8.68H208.389ZM225.947 17.128C224.491 18.504 222.779 19.192 220.811 19.192C218.859 19.192 217.243 18.592 215.963 17.392C214.683 16.176 214.043 14.552 214.043 12.52C214.043 10.488 214.691 8.872 215.987 7.672C217.299 6.472 218.843 5.872 220.619 5.872C222.395 5.872 223.899 6.408 225.131 7.48C226.379 8.552 227.003 10.024 227.003 11.896V13.816H217.595C217.707 14.52 218.075 15.096 218.699 15.544C219.323 15.992 220.027 16.216 220.811 16.216C222.075 16.216 223.115 15.792 223.931 14.944L225.947 17.128ZM223.355 11.248C223.275 10.48 222.987 9.888 222.491 9.472C221.995 9.056 221.387 8.848 220.667 8.848C219.963 8.848 219.315 9.064 218.723 9.496C218.131 9.928 217.787 10.512 217.691 11.248H223.355ZM239.419 14.992C239.419 16.256 238.947 17.272 238.003 18.04C237.075 18.808 235.891 19.192 234.451 19.192C233.491 19.192 232.491 19.024 231.451 18.688C230.411 18.336 229.475 17.824 228.643 17.152L230.227 14.896C231.571 15.936 233.003 16.456 234.523 16.456C234.987 16.456 235.355 16.368 235.627 16.192C235.899 16 236.035 15.752 236.035 15.448C236.035 15.144 235.843 14.864 235.459 14.608C235.091 14.352 234.547 14.112 233.827 13.888C233.123 13.664 232.579 13.472 232.195 13.312C231.827 13.152 231.403 12.92 230.923 12.616C229.947 12.008 229.459 11.112 229.459 9.928C229.459 8.728 229.939 7.752 230.899 7C231.859 6.248 233.099 5.872 234.619 5.872C236.139 5.872 237.659 6.384 239.179 7.408L237.835 9.808C236.715 9.04 235.595 8.656 234.475 8.656C233.371 8.656 232.819 8.96 232.819 9.568C232.819 9.904 232.995 10.168 233.347 10.36C233.699 10.552 234.283 10.776 235.099 11.032C235.915 11.288 236.491 11.488 236.827 11.632C237.179 11.76 237.595 11.968 238.075 12.256C238.971 12.8 239.419 13.712 239.419 14.992ZM246.47 8.68V14.464C246.47 14.96 246.598 15.352 246.854 15.64C247.11 15.912 247.414 16.048 247.766 16.048C248.438 16.048 249.006 15.744 249.47 15.136L250.814 17.656C249.694 18.68 248.51 19.192 247.262 19.192C246.03 19.192 244.982 18.784 244.118 17.968C243.27 17.152 242.846 16.04 242.846 14.632V8.68H241.334V6.088H242.846V2.224H246.47V6.088H249.59V8.68H246.47ZM13.8 34.224H17.544V51H13.8L5.808 40.488V51H2.064V34.224H5.568L13.8 45.024V34.224ZM32.6052 49.128C31.1492 50.504 29.4372 51.192 27.4692 51.192C25.5172 51.192 23.9012 50.592 22.6212 49.392C21.3412 48.176 20.7012 46.552 20.7012 44.52C20.7012 42.488 21.3492 40.872 22.6452 39.672C23.9572 38.472 25.5012 37.872 27.2772 37.872C29.0532 37.872 30.5572 38.408 31.7892 39.48C33.0372 40.552 33.6612 42.024 33.6612 43.896V45.816H24.2532C24.3652 46.52 24.7332 47.096 25.3572 47.544C25.9812 47.992 26.6852 48.216 27.4692 48.216C28.7332 48.216 29.7732 47.792 30.5892 46.944L32.6052 49.128ZM30.0132 43.248C29.9332 42.48 29.6452 41.888 29.1492 41.472C28.6532 41.056 28.0452 40.848 27.3252 40.848C26.6212 40.848 25.9732 41.064 25.3812 41.496C24.7892 41.928 24.4452 42.512 24.3492 43.248H30.0132ZM42.9599 51H39.2399L34.8479 38.088H38.5679L41.0879 45.888L43.6079 38.088H47.0879L49.6079 45.888L52.1279 38.088H55.8719L51.4799 51H47.7359L45.3599 43.968L42.9599 51ZM67.5287 46.992C67.5287 48.256 67.0567 49.272 66.1127 50.04C65.1847 50.808 64.0007 51.192 62.5607 51.192C61.6007 51.192 60.6007 51.024 59.5607 50.688C58.5207 50.336 57.5847 49.824 56.7527 49.152L58.3367 46.896C59.6807 47.936 61.1127 48.456 62.6327 48.456C63.0967 48.456 63.4647 48.368 63.7367 48.192C64.0087 48 64.1447 47.752 64.1447 47.448C64.1447 47.144 63.9527 46.864 63.5687 46.608C63.2007 46.352 62.6567 46.112 61.9367 45.888C61.2327 45.664 60.6887 45.472 60.3047 45.312C59.9367 45.152 59.5127 44.92 59.0327 44.616C58.0567 44.008 57.5687 43.112 57.5687 41.928C57.5687 40.728 58.0487 39.752 59.0087 39C59.9687 38.248 61.2087 37.872 62.7287 37.872C64.2487 37.872 65.7687 38.384 67.2887 39.408L65.9447 41.808C64.8247 41.04 63.7047 40.656 62.5847 40.656C61.4807 40.656 60.9287 40.96 60.9287 41.568C60.9287 41.904 61.1047 42.168 61.4567 42.36C61.8087 42.552 62.3927 42.776 63.2087 43.032C64.0247 43.288 64.6007 43.488 64.9367 43.632C65.2887 43.76 65.7047 43.968 66.1847 44.256C67.0807 44.8 67.5287 45.712 67.5287 46.992ZM73.9774 51H70.3774V33.192H73.9774V51ZM88.6693 49.128C87.2133 50.504 85.5013 51.192 83.5333 51.192C81.5813 51.192 79.9653 50.592 78.6853 49.392C77.4053 48.176 76.7653 46.552 76.7653 44.52C76.7653 42.488 77.4133 40.872 78.7093 39.672C80.0213 38.472 81.5653 37.872 83.3413 37.872C85.1173 37.872 86.6213 38.408 87.8533 39.48C89.1013 40.552 89.7253 42.024 89.7253 43.896V45.816H80.3173C80.4293 46.52 80.7973 47.096 81.4213 47.544C82.0453 47.992 82.7493 48.216 83.5333 48.216C84.7973 48.216 85.8373 47.792 86.6533 46.944L88.6693 49.128ZM86.0773 43.248C85.9973 42.48 85.7093 41.888 85.2133 41.472C84.7173 41.056 84.1093 40.848 83.3893 40.848C82.6853 40.848 82.0373 41.064 81.4453 41.496C80.8533 41.928 80.5093 42.512 80.4133 43.248H86.0773ZM96.5766 40.68V46.464C96.5766 46.96 96.7046 47.352 96.9606 47.64C97.2166 47.912 97.5206 48.048 97.8726 48.048C98.5446 48.048 99.1126 47.744 99.5766 47.136L100.921 49.656C99.8006 50.68 98.6166 51.192 97.3686 51.192C96.1366 51.192 95.0886 50.784 94.2246 49.968C93.3766 49.152 92.9526 48.04 92.9526 46.632V40.68H91.4406V38.088H92.9526V34.224H96.5766V38.088H99.6966V40.68H96.5766ZM107.247 40.68V46.464C107.247 46.96 107.375 47.352 107.631 47.64C107.887 47.912 108.191 48.048 108.543 48.048C109.215 48.048 109.783 47.744 110.247 47.136L111.591 49.656C110.471 50.68 109.287 51.192 108.039 51.192C106.807 51.192 105.759 50.784 104.895 49.968C104.047 49.152 103.623 48.04 103.623 46.632V40.68H102.111V38.088H103.623V34.224H107.247V38.088H110.367V40.68H107.247ZM124.805 49.128C123.349 50.504 121.637 51.192 119.669 51.192C117.717 51.192 116.101 50.592 114.821 49.392C113.541 48.176 112.901 46.552 112.901 44.52C112.901 42.488 113.549 40.872 114.845 39.672C116.157 38.472 117.701 37.872 119.477 37.872C121.253 37.872 122.757 38.408 123.989 39.48C125.237 40.552 125.861 42.024 125.861 43.896V45.816H116.453C116.565 46.52 116.933 47.096 117.557 47.544C118.181 47.992 118.885 48.216 119.669 48.216C120.933 48.216 121.973 47.792 122.789 46.944L124.805 49.128ZM122.213 43.248C122.133 42.48 121.845 41.888 121.349 41.472C120.853 41.056 120.245 40.848 119.525 40.848C118.821 40.848 118.173 41.064 117.581 41.496C116.989 41.928 116.645 42.512 116.549 43.248H122.213ZM135.349 41.256C134.277 41.256 133.477 41.64 132.949 42.408C132.421 43.16 132.157 44.16 132.157 45.408V51H128.557V38.088H132.157V39.792C132.621 39.264 133.197 38.816 133.885 38.448C134.589 38.08 135.301 37.888 136.021 37.872L136.045 41.256H135.349Z" fill="white"/>
</svg>
